<?xml version="1.0" encoding="utf-8"?>
<!-- Generator: Adobe Illustrator 23.0.1, SVG Export Plug-In . SVG Version: 6.00 Build 0)  -->
<svg version="1.1" id="Layer_1" xmlns="http://www.w3.org/2000/svg" xmlns:xlink="http://www.w3.org/1999/xlink" x="0px" y="0px"
	 viewBox="0 0 560 170" style="enable-background:new 0 0 560 170;" xml:space="preserve">
<g>
	<path d="M249.1,109.3c-0.2-0.2-0.8,0-0.8-0.4c0.2-2.8-3.2-2.8-3.4-5.4c-0.4-0.6-0.9-0.6-1.1-0.9c0-0.4,0-0.8-0.2-1.1
		s-0.6-0.4-0.6-0.6c-0.2-2.3-2.6-2.4-3.4-4.1c0.2-0.8-0.2-1.3-0.6-1.7c1.7-1.1,2.8-2.8,3.9-4.3c0.2,0,0.4,0,0.6-0.2
		c0.6-1.1,1.7-1.9,2.1-2.8c0.4-0.8,0.8-0.8,0.8-1.5c0.4,0.4,0.8,0,1.1,0c0-0.6,0-0.9-0.2-1.5c0.4-0.2,0.6-0.6,0.8-0.9
		c0-1.3,1.1-2.3,1.3-3.6v-0.8c0-1.7-0.6-4.1-1.7-4.7c-0.4-0.2-1.1-0.2-2.1-0.2c-1.1,0-2.3,0-2.6,0.4c-1.5,0.9-3.9,2.3-4.5,3.2
		c-1.3,0.6-2.1,1.3-2.6,2.3c-1.7,1.1-3.2,2.6-4.5,3.9c-0.6,0.8-1.3,1.5-2.3,2.1c-0.2-0.8,0.2-0.9,0-1.5l-3.8-5.6
		c-0.2-0.2-0.2-0.4-0.2-0.6c-1.1-1.3-2.4-2.3-3.8-3.4c0.2-0.6-0.2-0.6-0.4-1.1c-0.9-0.2-1.5-0.9-2.4-1.5c-0.2-0.9-0.8-0.9-1.3-1.5
		c-0.8-0.4-0.9-0.9-1.3-1.1c-0.4,0-0.9,0.2-1.5,0c-0.4,0-0.8-0.4-1.1-0.6h-1.9c0,0-0.2,0-0.4,0.2c-1.1,0.6-2.4,0.6-3.4,1.1
		c-0.2,1.1-1.3,1.7-1.7,2.8c0,0.6,0.6,0.6,0.6,1.1v0.4c0,0.6,0.2,1.3,0.4,2.1c0.2,1.5,0.4,3,0.8,4.3c0.2,0.2,0.4,0.2,0.4,0.4
		c0.2,0.8,0.2,1.3,0.4,1.9c0.2,0.2,0.6,0.4,0.6,0.8c0.2,0.2,0.2,0.4,0.2,0.6c0.2,0.6,0.5,1,0.8,1.3c-0.3,0.1-0.5,0.1-0.8,0.2
		c-0.2,0.2-0.6,0.6-0.9,0.6c-0.4,0.2-0.6,0.2-0.9,0.2c-1.1,0.4-1.9,1.5-3,2.1c-0.6,0.2-1.1,0.2-1.7,0.4c-0.8,0.2-1.1,0.8-1.7,0.9
		c-0.2,0-0.8,0-1.1,0.2c-2.1,1.3-4.3,2.6-6.2,4.3h-0.4c-0.9,0-0.9,0.9-1.7,0.9l-1.5,1.3c-0.2,0-0.2-0.4-0.6-0.4
		c-0.6,0.4-0.8,0.9-1.1,1.5c-1.3,0-3.2,1.1-4.7,1.9c-1.3,0.6-2.8,0.8-3.8,1.5h-0.4c-0.8,0-1.3,0.6-2.3,0.6h-0.4
		c-0.8-0.9-1.1-1.7-1.3-2.8c0.8-1.9,2.8-2.3,3-4.7c0.8-0.6,0.9-1.7,1.9-2.1v-1.3c0-0.6,0-1.3-0.4-1.7c0.8-0.6,0.6-2.3,0.9-2.8
		c-0.4-0.9-0.2-1.5-0.2-2.6c-0.2-0.4-0.4-0.8-0.4-1.1s0.2-1.1,0.2-1.7c-0.2-1.1-0.6-1.1-1.1-1.9c0-0.9-0.6-1.1-0.6-2.3
		c-0.8-0.4-0.8-1.9-1.7-2.4c0.2-0.6-0.2-0.8-0.2-1.3c-1.3-0.9-1.9-2.6-3.4-3.6c-1.1-2.1-3.8-2.8-6-3.8c-0.4,0.2-0.6,0.2-0.8,0.2
		c-0.6,0-0.9-0.2-1.7-0.2c-0.6,0-1.1,0.2-1.7,0.4c-0.2,0-0.4-0.2-0.8-0.2c-0.4,0.2-0.8,0.6-1.1,0.6c-0.6,0.4-1.3,0.4-2.1,0.8
		s-1.9,0.8-2.4,0.9c-0.2,0.2-0.4,0.4-0.6,0.4c-0.8,0.8-1.7,1.7-2.8,2.4c-0.6,0.4-1.5,0.6-2.3,0.9c-0.4,1.5-2.3,1.1-2.3,3.2
		c-1.9,1.1-2.1,3.6-3,5.6c0,0.4,0.4,0.8,0.4,0.9c-0.2,0.4-0.6,1.1-0.6,1.7c0,0.2,0,0.4,0.2,0.6c-0.4,0-0.2,0.8-0.6,0.9
		c0.1,0.3,0.1,0.6,0.1,1c-0.3,0.2-0.5,0.4-0.8,0.5c-0.8,0.2-1.3,0.8-1.7,1.1c-0.8,0.2-1.3,0.6-1.9,0.9c-0.4,0,0,0.6-0.4,0.6
		c-0.9,0.2-1.3,0.8-1.7,1.3c-1.9,0.8-3.2,2.1-4.3,3.4c-1.7,0.6-2.3,2.4-4.3,2.6c-0.6,0.6-1.1,1.1-1.9,1.5c-1.9,0.6-3.4,2.4-6.4,3.4
		c-1.3,0.4-2.8,0.8-4.1,0.8c-2.1,0-3.9-0.6-5.1-1.9c-0.6-0.8-0.4-1.5-1.3-1.9c0.4-0.6-0.6-0.9-0.6-1.3c-0.2-0.4,0.4-0.4,0.2-0.8
		c-0.8-1.1-1.3-2.6-1.3-3.9c-0.9-0.2-0.6-1.5-1.3-1.7c0-0.2,0.2-0.4,0.2-0.4c0-0.6-0.6-1.1-0.8-1.5c0.4,0,0.4-0.6,0.6-0.8
		c-0.8-0.4-0.6-1.3-0.6-2.1c0-0.6-0.8-0.4-0.8-0.9c0.2,0,0.4-0.2,0.8,0c0-0.6-0.4-0.6-0.4-0.9c0.4-0.6,0.6-1.1,0.6-1.7
		c0-1.1-0.6-2.6-0.6-3.9v-0.6c-0.6-0.9-0.2-1.9-0.8-2.8c0-0.2,0.6-0.2,0.6-0.6c-0.2-0.9-0.4-1.9-0.9-2.4c0.2-0.8,0-0.8-0.4-1.3
		c0.9-1.1,1.9-2.3,2.1-4.1c0.9-0.2,0.9-1.3,1.1-2.3c0.2-0.2,0.6-0.2,0.6-0.6v-0.9c1.3-0.9,0.8-3.6,2.3-4.3v-0.6
		c0-0.6,0.6-0.8,0.4-1.7c0.8-0.4,1.3-1.3,1.3-2.3c0-0.4,0-0.8-0.2-1.1c0.9-1.1,1.5-2.6,1.7-4.1c0-0.6-0.6-0.6-0.6-1.1
		c0.4-0.6,0-1.3,0.4-2.1c0.2-0.6,0.9-1.1,1.1-1.9V44c0-0.8-0.2-1.7-0.2-2.6v-0.6c0,0,0.4-0.2,0.6-0.2c0.2-0.4,0.2-0.6,0.2-0.8
		c0-0.9-0.6-1.5-0.9-2.1c0.6-0.6,0.8-1.5,0.8-2.3c0-0.9-0.2-1.9-0.6-2.6c0.4-0.9,0.8-1.9,0.8-2.8c0-0.8-0.2-1.5-0.9-1.9
		c0.2-0.4,0.4-0.6,0.4-1.1c0-0.8-0.6-1.9-0.9-2.5c0.4-0.6,0.4-0.9,0.4-1.5c0-0.9-0.2-1.7-0.4-2.5c0.2-0.6,0.4-0.9,0.4-1.5
		c0-1.7-1.3-3.4-1.9-5.1c-0.2-0.2-0.6-0.4-1.1-0.4c0.6-0.6-0.4-0.6-0.4-1.1c0-0.2,0.2-0.4,0.2-0.6c0-1.1-1.3-1.7-2.1-2.3
		c-1.1-0.9-1.7-1.7-3-2.3c-1.3-0.2-2.6-0.4-3.9-0.4c-0.9,0-1.9,0.2-2.6,0.6c-0.6,0-0.6-0.4-1.1-0.2c-1.3,0.6-3,0.9-4.7,1.1
		c-1.5,1.1-3.4,1.7-4.1,3.4c-0.6,0.4-1.1,0.8-1.1,1.5c-1.1,0.2-1.3,1.3-2.4,1.7c-0.2,0.8-0.6,1.3-0.8,1.9c-0.4,0.9-1.3,1.3-1.3,2.3
		c0,0.2,0,0.4-0.2,0.4c-0.2,0.8,0.2,0.8-0.2,1.1c-1.3,1.5-2.3,4-2.6,6.2c-0.4,1.1-0.8,2.4-0.8,3.4l0.2,0.8c0,0.4-0.4,0.8-0.4,1.3
		c-0.2,0.9,0.2,2.5,0,3.4c0,0.6,0.4,0.6,0.4,0.9c-0.2-0.2-0.6,0-0.6,0.4c0.2,3.2,0.2,5.6,0.9,8.1C82.2,45.5,82,45.7,82,46
		c0.4,0.4,0.4,0.8,0.4,1.3s-0.2,1.1-0.2,1.7c0,0.4,0.2,0.8,0.4,1.1c0,0.2-0.2,0.4-0.2,0.6c0,0.9,0.6,1.7,0.8,2.6
		c0,0.8-0.4,1.3-0.4,1.9c0,0.4,0.2,0.8,0.4,1.1c0.2,1.7,0.2,2.8,0.8,4.1c-0.2,0.4-0.2,0.8-0.2,1.1c0,1.3,0.4,2.6,0.4,3.8
		c0,0.4-0.2,0.6-0.2,0.9s0.6,0.4,0.6,0.8c-0.2,0.4-0.4,0.8-0.6,0.9c0,4.9,0.8,8.1,1.1,12.4c0.2,0.6,0.6,0.6,0.6,1.1
		c-0.2,0.8-0.2,1.5-0.2,2.3V86c0.2,1.1,0.8,2.1,0.9,3.2c0.1,0.3,0.1,0.6,0.1,0.8c-0.3,0.2-0.3,0.7-0.8,1c-0.8,0.2-1.3,0.4-1.7,0.9
		c-1.1,0.2-1.7,0.9-2.8,1.3c0,0.6-0.8,0.6-1.1,0.9c-0.6,0.6-0.9,1.3-1.5,1.7c-0.6,0.4-1.1,0.6-1.7,0.6c-0.6,1.5-2.8,1.3-3.6,2.6
		c-2.4,1.5-6.2,2.4-9,2.3c-0.4-0.6-1.1-0.6-2.1-0.8c0-0.6-0.8-0.8-1.1-0.9c0-0.8-0.4-1.3-0.8-1.9c0.2-0.4,0-0.4,0-0.9
		c-0.6-0.4-0.4-0.9-0.6-1.5c-0.2-0.6-0.8-0.9-0.8-1.5s0.4-1.1,0.4-1.7c0-0.4-0.2-0.6-0.2-1.1c0.2-0.8,0.4-1.1,0.2-1.9
		c0-0.2-0.2-0.6-0.2-0.6c0-0.4,0.2-0.6,0.2-0.8c0-0.4-0.2-0.6-0.2-0.9l0.4-0.9v-0.4c0-0.8-0.4-1.7-0.4-2.4c0,0,0.2-0.4,0.2-0.6v-0.4
		c0-0.9-0.4-1.7-0.6-2.6c-0.4-0.4-0.8-0.8-0.8-1.3C57.1,77.7,56.5,77,56,76c-0.4-0.2-0.8-0.4-0.8-0.8h-0.8c-1.7-1.7-4.1-2.4-6.4-3.4
		c-0.8-0.2-1.5,0-2.3-0.4c-0.4-0.2-0.8-0.6-1.1-0.6c-0.8-0.2-1.5,0-2.1,0c-0.4,0-0.6-0.4-0.8-0.4h-3.4c-0.6,0-0.9,0-1.5-0.2
		c-0.4,0-0.6,0.4-0.9,0.6c-0.6-0.4-0.9,0-1.7,0c-1.1,0-2.5-0.6-3.8-0.6c-0.4,0-0.9,0.2-1.3,0.4L28,70.2l-0.2,0.4h-1.1
		c-1.3,0-2.4,0.2-3.4,1.1c-0.4,0-0.6-0.4-0.9-0.2c-0.2,0.2-0.2,0.8-0.6,0.9c-0.2,0.2-0.6,0.4-0.9,0.4c0,0.2,0,0.6-0.2,0.8
		c-2.1,0.9-3.4,2.6-4.7,4.1v0.4c0,0.6-0.8,0.6-0.8,1.5v0.2C15,80,14.4,80,14.3,80.2c-0.2,0.8-0.9,0.9-1.3,1.3
		c-0.4,0.9-1.3,1.1-1.3,2.4c-0.4,0.2-0.6,0.6-0.9,0.9c0,0.4,0.6,0.4,0.4,0.8c-0.2,0.6-0.6,0.9-1.3,0.9c0,0.4-0.4,0.9-0.4,1.5
		c0,0.2,0.2,0.4,0.2,0.6c-0.4,0.4-0.8,0.6-0.9,1.1C9,89.9,9,90.3,9,90.6c0,0.4-0.6,0.2-0.6,0.6c0,1.1-0.6,1.7-0.6,2.8
		c0,0.4,0.2,0.6,0.2,1c-0.6,0.9-0.6,2.3-0.6,3c0.4,1.9,0.6,3.6,1.3,4.9l0.6,0.6c0,0.4,0,0.8,0.2,1.1c0.4,1.1,1.5,1.7,1.9,2.4
		c1.3,0.8,2.3,1.9,3.6,2.8c0,0.2,0.2,0.2,0.2,0.6c1.1,0.4,1.5,1.3,2.3,1.9c0.4,0.2,0.8,0.4,0.9,0.6c0.8,0.6,1.7,0.9,2.5,1.5
		c2.8,0.4,5.6,1.9,8.6,1.9H30c1.1-0.2,1.9-0.4,3-0.4c0.4-0.2,0.6-0.6,0.9-0.6c2.1-0.2,3.6-1.1,5.1-2.1c1.7-0.6,2.8-1.7,4.3-2.6
		c0.2-0.6,0.6-1.3,1.5-1.5c0-0.4,0.6-0.8,0.9-0.9c0.6-0.4,1.7-0.9,1.9-0.8c0.2,0,0.6,0.2,0.8,0.4c0.9,0.6,1.1,0.9,2.1,1.5
		c0.6,0.6,1.3,1.1,2.1,1.5c0.6,0.4,0.8,0.6,1.5,0.6c1.7,2.1,5.1,1.7,7.5,3c0.2,0,0.4-0.2,0.4-0.2c0.6,0,1.1,0.6,1.7,0.6
		c0.8,0,1.1-0.6,1.9-0.6c0.4,0,0.8,0.2,1.1-0.2c0.2,0,0-0.4,0.2-0.4h0.4c0.8,0,1.7-0.4,2.4-0.6c0.9-0.2,2.1-0.2,3.2-0.6
		c0.6-0.2,1.1-0.6,2.1-0.6h0.4c0.6-0.8,2.1-0.9,2.1-2.1c1.1,0,1.1-0.9,2.1-0.9H80c0.4-0.2,0.4-0.8,0.9-0.8c1.3-0.4,2.3-1.1,3-2.1
		c1.5-0.9,3-1.9,3.8-3.4c0.9-0.6,1.6-1.2,2.1-2.1l0,0c0.6,0.2,0.8,0.8,1.1,0.8v0.8c0.8,1.1,1.7,1.9,2.4,2.8c0.4,0.2,0.4,0.6,0.6,0.9
		c1.9,1.9,4.5,2.8,6.4,4.7c0.6,0,0.8,0.4,1.3,0.2c0.2,0.4,0.9,0.4,0.9,0.9c0.6,0,0.6-0.4,1.1-0.2c0.9,1.7,3.8,1.7,5.3,2.6
		c1.9-0.2,3,0.2,4.1,0.2c0.6,0,1.1,0,1.7-0.4c0.4,0.6,1.3,0.8,2.4,0.8c0.4-0.2,0.2-0.6,0.4-0.8c0.6,0.6,0.9,0.4,1.7,0.4l0.6,0.4h0.6
		c0.9,0,1.7-0.6,2.6-0.6h0.6c0.4-0.2,0.9-0.4,1.7-0.4h0.8c0.4-0.2,0.2-0.6,0.6-0.6c1.9-0.2,2.6-1.5,4.5-1.7c0.6-1.5,2.6-1.7,3.4-3
		c1.1-0.4,1.9-1.3,3.2-1.7c1.5-2.4,4.1-3.8,6.2-5.5v-0.8c1.4-0.6,2.2-1.5,3.1-2.5c0,0.1,0,0.3-0.1,0.4c1.1,3.2,2.4,6.4,4.5,8.3
		c0.6,0,0.8,0.2,1.1,0.2c0.2,1.1,0.8,1.7,1.9,1.9c0,1.1,1.3,1.9,1.7,3c0.6,0.2,0.8,0.2,1.1,0.2c0,0.2,0.4,0.2,0.2,0.6
		c2.4,1.7,5.3,2.8,8.6,3.6c0.4,0.2,0.4-0.2,0.9,0c0.9,0.4,2.3,0.6,3.8,0.6c2.4,0,5.4-0.6,7.5-1.1c0.9,0.2,1.3,0,2.4,0
		c0.4,0,0.4-0.4,0.8-0.6c0.2,0.2,0.4,0.2,0.8,0.2c0.6,0,1.3-0.6,1.9-0.9c0.9,0,1.5-0.8,2.4-0.8c0.2,0,0.6,0,0.9,0.2
		c1.5-0.9,3.4-1.7,4.9-2.8c1.7-0.4,2.6-1.1,4.3-1.9c0.2-0.2,0.2-0.6,0.4-0.8c0.6,0,0.6-0.4,0.9-0.6c1.5,0,1.7-1.5,3-1.7
		c0.4-0.2,0.2-0.8,0.6-0.8c0.6-0.4,1.3-0.2,2.1-0.6c0.9-0.6,1.1-1.7,2.3-1.7c0.9-1.3,2.1-2.6,3.9-3.2c0.2-0.4,0.4-0.9,1.1-0.9h0.4
		c0.4-1.3,1.3-2.1,2.3-2.8c0-0.4-0.2-0.8,0-1.3c0.3-0.1,0.6-0.3,0.8-0.5c0.2,0.3,0.4,0.7,0.4,1.1c1.1,1.7,1.9,3.9,3.4,5.1
		c-0.2,0.4,0.4,0.8,0.4,1.3c-0.8,0.9-0.9,2.1-1.7,2.8c0,0.6-0.4,0.8-0.2,1.1l-0.8,0.6c-0.2,1.9-1.7,3-1.9,4.9
		c-0.2,0.2-0.2,0.4-0.6,0.4c-0.9,2.8-2.3,5.5-3.6,8.1c0.4,0.6,0.8,0.8,0.8,1.5c0.4,0.2,0.6,0.6,0.9,0.9c3.2,0.9,5.3-2.3,7.5-3.6
		c0.8-1.3,1.9-2.4,2.4-3.9c0.6-0.2,0.6-0.4,0.9-0.4c0.4-0.4,0.4-1.1,0.6-1.5c0.6-0.2,0.8-0.6,1.1-0.8c1.1,0.9,2.1,1.9,2.8,3
		c0.2,0.4,0.6,0.2,0.6,0.4c0,0.4,0.2,0.4,0.4,0.8c2.1,1.3,4.5,2.6,6.2,4.5c1.7,1.1,3.8,1.5,5.6,2.3c0.6-0.2,0.8,0,1.1-0.2
		c0.8,0.4,1.5,0.8,2.4,0.8c0.6,0,1.3-0.2,2.1-0.4c2.6,0.6,5.3-1.5,6.4-3.2c-0.2-0.4-0.2-0.4-0.2-0.8c0.8-0.4,0.9-0.9,0.9-1.7
		c0-1.7-1.9-4.1-1.7-6.2C250.6,110.2,249.3,110.6,249.1,109.3z M39.4,84.7c-0.4,1.1-0.6,2.1-1.1,3l-0.6,0.9
		c-0.6,1.5-0.6,2.8-1.7,3.9c0,1.5-0.6,1.9-1.3,3.2c-0.2,0.4-0.4,1.1-0.6,1.7c-0.2,0.2-0.6,0.4-0.8,0.8C33.2,98.6,33,99,32.8,99
		c-0.4,0.4-0.9,0.6-1.3,0.6c-1.1,0-2.1-0.8-2.3-1.9v-0.6c0-1.1,0.6-2.3,0.8-3.4c0.2-0.6,0.2-1.1,0.4-1.9c0.2-1.1,0.6-2.4,0.9-3.6
		c0.4-1.3,0.9-2.4,1.5-3.4c0.6-0.8,1.1-1.1,1.5-2.1c0.8,0,0.8-0.8,1.5-0.8c0-0.4,0.2-0.6,0.2-0.9c0.4,0,0.8,0,0.9-0.4
		c0.2-0.2,0.4-0.2,0.6-0.2c0.6,0,0.9,0.9,1.7,1.1c0,0.6,0.2,0.9,0.4,1.3C39.4,83.5,39.6,84.3,39.4,84.7z M104.5,51.7
		c0,1.7,0.4,3.6-0.6,4.7c-0.8,0.2-0.9-0.2-1.5,0c0-0.9-0.6-2.1-0.6-3s0.4-1.7,1.3-2.3c-0.9-1.7-1.7-3.4-3-4.9
		c1.3-0.8,1.5-1.3,1.5-2.4v-0.9c0-0.8,0.8-1.9,0.8-2.3c0-1.5-1.3-3-1.3-4.3c0-0.6,0.8-0.9,0.9-1.5c0-0.4-0.6-0.8-0.6-1.1
		c0-0.6,0.6-1.1,0.6-1.7c0-0.4-0.2-0.6-0.6-0.9c1.7-0.9,2.6-2.1,5.3-2.6c0.9,1.9,2.3,4.7,2.3,7.3c0,0.9-0.2,1.9-0.6,2.8
		c-0.2,0.2-1.1,0.8-1.3,1.1c-0.9,2.1,0.6,5.8-1.9,7.9c0,0.6,0.2,0.8,0.6,1.1C104.7,49.5,104.5,50.6,104.5,51.7z M108.2,88.8
		c0,0-0.2,0-0.4-0.2C108.2,88.4,108.4,88.6,108.2,88.8z M169.9,91.2c0,0.4-0.6,0.4-0.9,0.8c-0.4,0.8-0.9,1.1-1.7,1.7
		c-1.3,0.8-3.2,1.7-4.9,1.7c-0.6,0-1.1-0.2-1.5-0.4c-0.2-0.4-0.2-0.8-0.2-1.1c0-0.6,0-1.1,0.2-1.7c0.2-1.1-0.2-2.8,0-3.9l0.6-0.8
		c0.2-0.4,0.2-0.6,0.2-0.8c0-1.7,1.7-2.4,3.8-2.4h0.8c-0.2-0.2,0.2-0.4,0.2-0.2c1.5,0,2.4,0.8,3.6,1.3c0.6,0.6,0.6,1.5,0.6,2.4
		C170.5,89,170.3,90.3,169.9,91.2z"/>
	<path d="M554.4,33.1c-0.4-0.6-0.9-0.9-1.1-1.5c0.2-0.4,0.6-0.4,0.6-0.8c-0.4-0.6-0.4-1.3-0.4-2.1v-1.3c-0.2-0.6-0.4-1.1-0.9-1.3
		v-0.4c0-1.9-1.7-2.8-2.3-4.5c0-0.9-0.8-0.9-0.8-1.7c-0.4-0.8-0.4-1.9-0.6-3c-1.3-0.8-2.8-1.5-4-2.4c-1.7-0.2-3.4-0.9-5.5-0.9
		c-0.8,0-1.5,0.2-2.3,0.2h-0.6c-0.9,0.6-3,0.2-3.6,1.1h-0.4c-1.1,0-2.5,0.8-3.6,0.9c-1.7,1.3-4,2.3-5.5,4c-0.2,0.4,0.2,0.4-0.2,0.8
		c-0.8,0-0.2,0.8-1.1,0.8c-0.2,1.7-1.7,2.6-1.7,4.3v0.4c-1.3,1.1-2.1,2.8-2.8,4.5H517c-0.2,0.9-0.4,1.5-0.4,2.4
		c0,0.4,0.6,0.4,0.6,0.8c-0.2,0.9-0.2,2.3-1.1,2.6c0,0.6,0.2,0.8,0.2,1.1c-0.6,1.1-0.9,2.4-1.5,3.8c0,1.3-0.9,2.3-0.9,3.4
		c0,0.4,0,0.6,0.2,0.9c-0.6,0.4-0.4,1.3-0.8,1.5c0,0.4,0.2,0.8,0,1.3c-0.4,0.9-0.6,1.9-1.5,2.5c0,0.9-0.2,1.9-0.8,2.6
		c0.2,0.2,0.4,0.4,0.4,0.6c0,0.6-0.6,1.3-0.6,1.9c0,0.2,0.2,0.4,0.2,0.6c0,0.4-0.6,0.4-0.6,0.9c-0.4,4.1-0.4,8.3-0.8,11.9
		c-2.6,0.2-4.9,0.2-7.3,1.1c-0.4-0.2-0.8-0.2-1.1-0.2c-1.3,0-2.6,0.4-4,0.4c-0.6,0-1.1,0-1.7-0.2c-0.4,0.2-0.4,0.6-0.8,0.8
		c-0.4,0-0.4-0.2-0.8-0.2c-1.5,0.9-3.4,1.7-5.1,2.4c-0.4,1.1-2.1,1.5-2.8,2.3c-0.2,0.2-0.2,0.8-0.4,1.1c-0.8,0.9-2.1,1.9-2.3,3.4
		c0,0.2,0.4,0,0.4,0.2c-1.1,0.4-1.3,1.5-2.6,1.7c-0.5,1.1-1.5,2.2-1.9,3.6c-0.8,0.7-1.5,1.4-2.4,1.9c-0.8,0.2-1.3,0.8-1.7,1.1
		c-0.8,0.2-1.3,0.6-1.9,0.9c-0.4,0,0,0.6-0.4,0.6c-0.9,0.2-1.3,0.8-1.7,1.3c-1.9,0.8-3.2,2.1-4.3,3.4c-1.7,0.6-2.3,2.4-4.3,2.6
		c-0.6,0.6-1.1,1.1-1.9,1.5c-1.9,0.6-3.4,2.4-6.4,3.4c-1.3,0.4-2.8,0.8-4.1,0.8c-2.1,0-4-0.6-5.1-1.9c-0.6-0.8-0.4-1.5-1.3-1.9
		c0.4-0.6-0.6-0.9-0.6-1.3c-0.2-0.4,0.4-0.4,0.2-0.8c-0.8-1.1-1.3-2.6-1.3-3.9c-0.9-0.2-0.6-1.5-1.3-1.7c0-0.2,0.2-0.4,0.2-0.4
		c0-0.6-0.6-1.1-0.8-1.5c0.4,0,0.4-0.6,0.6-0.8c-0.8-0.4-0.6-1.3-0.6-2.1c0-0.6-0.8-0.4-0.8-0.9c0.2,0,0.4-0.2,0.8,0
		c0-0.6-0.4-0.6-0.4-0.9c0.4-0.6,0.6-1.1,0.6-1.7c0-1.1-0.6-2.6-0.6-3.9v-0.6c-0.6-0.9-0.2-1.9-0.8-2.8c0-0.2,0.6-0.2,0.6-0.6
		c-0.2-0.9-0.4-1.9-0.9-2.4c0.2-0.8,0-0.8-0.4-1.3c0.9-1.1,1.9-2.3,2.1-4.1c0.9-0.2,0.9-1.3,1.1-2.3c0.2-0.2,0.6-0.2,0.6-0.6v-0.9
		c1.3-0.9,0.8-3.6,2.3-4.3v-0.6c0-0.6,0.6-0.8,0.4-1.7c0.8-0.4,1.3-1.3,1.3-2.3c0-0.4,0-0.8-0.2-1.1c0.9-1.1,1.5-2.6,1.7-4.1
		c0-0.6-0.6-0.6-0.6-1.1c0.4-0.6,0-1.3,0.4-2.1c0.2-0.6,0.9-1.1,1.1-1.9V44c0-0.8-0.2-1.7-0.2-2.6v-0.6c0,0,0.4-0.2,0.6-0.2
		c0.2-0.4,0.2-0.6,0.2-0.8c0-0.9-0.6-1.5-0.9-2.1c0.6-0.6,0.8-1.5,0.8-2.3c0-0.9-0.2-1.9-0.6-2.6c0.4-0.9,0.8-1.9,0.8-2.8
		c0-0.8-0.2-1.5-0.9-1.9c0.2-0.4,0.4-0.6,0.4-1.1c0-0.8-0.6-1.9-0.9-2.5c0.4-0.6,0.4-0.9,0.4-1.5c0-0.9-0.2-1.7-0.4-2.5
		c0.2-0.6,0.4-0.9,0.4-1.5c0-1.7-1.3-3.4-1.9-5.1c-0.2-0.2-0.6-0.4-1.1-0.4c0.6-0.6-0.4-0.6-0.4-1.1c0-0.2,0.2-0.4,0.2-0.6
		c0-1.1-1.3-1.7-2.1-2.3c-1.1-0.9-1.7-1.7-3-2.3c-1.3-0.2-2.6-0.4-4-0.4c-0.9,0-1.9,0.2-2.6,0.6c-0.6,0-0.6-0.4-1.1-0.2
		c-1.3,0.6-3,0.9-4.7,1.1c-1.5,1.1-3.4,1.7-4.1,3.4c-0.6,0.4-1.1,0.8-1.1,1.5c-1.1,0.2-1.3,1.3-2.4,1.7c-0.2,0.8-0.6,1.3-0.8,1.9
		c-0.4,0.9-1.3,1.3-1.3,2.3c0,0.2,0,0.4-0.2,0.4c-0.2,0.8,0.2,0.8-0.2,1.1c-1.3,1.5-2.3,4-2.6,6.2c-0.4,1.1-0.8,2.4-0.8,3.4l0.2,0.8
		c0,0.4-0.4,0.8-0.4,1.3c-0.2,0.9,0.2,2.5,0,3.4c0,0.6,0.4,0.6,0.4,0.9c-0.2-0.2-0.6,0-0.6,0.4c0.2,3.2,0.2,5.6,0.9,8.1
		c-0.2,0.4-0.4,0.6-0.4,0.9c0.4,0.4,0.4,0.8,0.4,1.3s-0.2,1.1-0.2,1.7c0,0.4,0.2,0.8,0.4,1.1c0,0.2-0.2,0.4-0.2,0.6
		c0,0.9,0.6,1.7,0.8,2.6c0,0.8-0.4,1.3-0.4,1.9c0,0.4,0.2,0.8,0.4,1.1c0.2,1.7,0.2,2.8,0.8,4.1c-0.2,0.4-0.2,0.8-0.2,1.1
		c0,1.3,0.4,2.6,0.4,3.8c0,0.4-0.2,0.6-0.2,0.9s0.6,0.4,0.6,0.8c-0.2,0.4-0.4,0.8-0.6,0.9c0,4.3,0.6,7.3,1,10.9
		c-1.2,0.9-2.6,1.7-3.8,2.4c-1.3,0.9-2.8,1.5-4.1,2.4c0,0-0.6,0-0.6,0.2h-1.3c-2.1,1.1-4.3,1.3-6.2,2.6h-0.6c-0.9,0-1.5-0.4-1.9-1.1
		c0-0.2-0.2-0.4-0.2-0.6c0-0.8,0.4-1.3,0.6-2.1c0-2.1-0.4-3.8-1.1-5.1c0.2,0,0.2-0.4,0-0.6c0-0.4-0.4-0.8-0.4-0.9
		c0.2-0.8-0.2-1.1-0.2-1.5c0-0.2,0-0.4,0.2-0.6c-0.8-0.2-0.6-1.1-1.1-1.3c-1.5-3-5.1-3.9-6.4-6.6c-1.3-0.6-2.4-1.3-4-1.3h-0.8
		c-1.1-0.4-2.1-1.1-2.8-1.5c-0.8-0.2-1.7-0.2-2.5-0.4c-1.3-0.2-2.6-0.2-3.6-0.2c-0.4,0-0.6-0.4-0.9-0.4c-1.1,0-1.5,0.4-3.2,0.4h-1.7
		c-1.1,0.4-1.9,0.9-2.8,1.3c-0.6,0.2-1.3,0.2-1.9,0.4c-0.6,0.4-0.9,0.9-1.3,1.1c-0.8,0.9-1.9,1.5-2.3,2.6c-1.9,0.4-2.6,2.3-4.1,2.8
		c-0.9,1.7-2.5,2.4-3.2,4.1c-0.6,0-0.6,0.2-0.9,0.4c0,0.4-0.4,0.6-0.4,0.8c-0.2,0.4-0.6,0.6-0.9,0.9c-0.5,0.8-0.9,1.9-1.4,2.9
		c-0.6,0.1-1.2,0.3-1.7,0.4c-0.8,0.4-1.5,1.1-2.5,1.3c-1.5,0.6-3,0.8-3.6,1.9c-4.1,1.1-7.9,2.6-10.9,4.9c-0.9,0.4-1.7,0.9-2.5,1.5
		c-1.9,0.2-2.3,1.9-4.1,2.1c-0.4-3.4-0.2-7.3-1.3-10.5l0.4-0.6c-0.9-0.8-0.4-1.7-0.4-2.8s-1.3-1.7-1.5-2.6c-0.8-1.5-0.9-3.2-1.9-4.7
		l-1.1-0.9c-0.8-0.9-1.3-2.1-2.1-3c-0.8,0.2-0.9-0.4-1.5-0.4c-1.9-1.7-4.3-2.6-6.4-4.1c-2.3-0.6-4.3-2.1-7.1-2.1
		c-1.3,0-4.3,0.2-6.4,0.6c-0.2,0.2-0.4,0.4-0.8,0.6c-2.5,0.8-4.5,1.5-6,2.8h-0.9c-0.4,0.6-0.9,0.6-1.5,0.9c-0.4,0.4-0.6,0.9-0.9,1.3
		c-0.6,0.4-1.1,0.6-1.5,1.1c-0.6,0.6-1.1,2.3-1.7,2.6c-0.9,0.6-1.7,1.5-2.6,1.7c-0.6,0.6-0.9,1.1-1.3,1.7v1.1
		c-0.8,0-0.8,0.8-0.9,1.1c-0.6,0.8-0.9,1.1-1.3,1.9c-0.2,0.8-0.9,1.3-1.1,1.9s0,1.1-0.4,1.9c-0.2,0.8-0.9,1.5-1.1,2.3V85
		c0,0.6-0.4,0.8-0.4,1.1c-0.6,1.3-0.6,2.6-0.6,4.1v2.3c0,0.4,0.4,0.4,0.4,0.9v0.9c0.4,1.1,1.1,2.1,1.3,3.6c0.8,1.3,1.9,2.3,2.4,3.8
		c0.4,0,0.6,0.4,0.9,0.6c0.4,1.5,1.7,2.3,2.5,3.6c0.2,0.2,0.9,0,1.1,0.4c0,0.2-0.4,0.2-0.2,0.6c0.6,0.6,1.1,1.1,2.1,1.3
		c0.4,0.9,1.1,1.5,2.3,1.7c1.5,1.9,4,2.4,6.4,3.2c0.4,0.2,0.6,0.6,0.9,0.6c0.8,0.4,1.9,0,2.1,0.9c-0.8,0.6-1.3,0.9-1.9,1.5
		c-0.8,0.6-1.1,1.1-1.9,1.7c-0.4,0.4-0.8,0.2-1.1,0.6c-0.4,0.2-0.9,0.8-1.5,1.3c-0.6,0.4-1.3,0.8-1.7,1.1c-0.8,0.8-1.1,2.1-2.6,2.1
		c-0.4,1.5-2.3,1.7-3.2,2.8c-0.2,0.2-0.2,0.8-0.4,0.9c-0.2,0.4-0.4,0.4-0.8,0.8l-0.6,0.9c-0.4,0-0.8,0-0.8,0.2
		c-0.2,0.2-0.4,0.6-0.2,1.1c-1.3,0.4-2.1,1.3-2.5,2.8c-2.4,1.5-3.6,4.5-3.6,8.1c0,0.6,0.6,0.6,0.6,0.9c-0.2,0.4-0.2,1.1-0.2,1.9
		c0,0.6,0,0.9,0.2,1.3c-0.2,0-0.2,0.2-0.2,0.2c0,2.3,0.8,4.3,1.3,5.8c0.9,0.8,1.1,2.4,2.3,3c0.8,1.1,1.5,2.3,2.8,2.6
		c0.9,1.1,1.9,2.1,3.6,2.4c1.5,2.3,4.5,3,7,4.5h0.9c0.9,0.9,2.6,1.3,4.3,1.3c1.3,0,2.5-0.2,3.4-0.8c0.4,0.2,0.8,0.4,1.1,0.4
		c1.1,0,2.3-0.8,3.6-0.8c0.6-0.9,1.7-0.9,2.6-1.5c0.6-0.2,0.9-0.8,1.5-1.3l2.3-1.5c0.9-0.6,1.5-1.3,2.5-1.9c0.4-0.6,1.1-0.8,1.3-1.5
		c1.3-1.9,2.6-4.1,3.2-5.3c0-0.4-0.2-0.6-0.4-0.8c0.9-0.8,0.4-1.9,0.9-2.8c-0.4-0.4-0.4-0.8-0.4-1.1c0-0.6,0.2-1.1,0.4-1.9
		c0.4-2.1,0.2-3.9,1.1-5.3c-0.2-0.4-0.4-0.8-0.4-1.3l0.6-1.1c0.4-1.1,0.2-1.7,0.2-2.4v-0.9c0.9-0.6,1.1-1.9,1.1-3.2
		c0-0.8,0-1.3-0.2-1.9c0.4-0.6,0.6-1.3,0.6-2.3c0-0.8-0.2-1.7-0.4-2.4c0.4-0.8,0.6-1.1,0.6-1.9v-0.6c0.2-0.6,1.1-0.8,0.8-1.5
		l0.9-1.1c-0.8-0.9,0.6-1.5-0.2-2.4c0.2-0.4,0.8-0.4,0.8-1.1c0-0.6-0.6-0.4-0.6-0.9c0.9-0.2,0.6-1.3,0.9-2.1
		c0.2-0.4,0.8-0.6,0.6-1.1c0.9,0,1.1-0.6,1.3-1.1c0.9,0.2,0.8-0.6,1.3-0.8c2.3-0.4,2.8-1.5,5.1-2.1c0.6-0.9,1.7-0.9,2.6-1.3
		c0.4-0.2,0.6-0.8,0.9-0.9c0.8-0.4,0.9-0.6,1.3-0.9c0.9-0.6,2.1-0.9,3-1.3c1.1-0.8,1.9-1.9,3.4-2.3c0.9-1.1,2.3-1.9,4-2.3
		c1.1-1.1,2.1-2.2,3.8-2.6c0.1,1.1,0.8,2.5,1.9,3c0.6,1.3,1.3,2.1,1.9,3.4c0.6,0.4,0.4,1.1,1.1,1.3c0,1.3,1.5,2.4,2.3,3.6
		c0.4,0,0.4,0.4,0.6,0.6s0.6,0,0.8,0.2l0.2,0.2c0.2,0.4,0.8,0.4,0.8,0.8c0.2,0.2,0.4,0,0.8,0.2c0.4,0.6,1.1,1.1,1.9,1.3
		c1.9,1.5,5.1,2.8,8.6,2.6c0.2,0.2,0.6,0,0.8,0.4c0.9-0.4,2.1,0,2.8-0.6c0.6,0.2,0.9-0.2,1.3,0.2c2.1-0.9,4.1-1.9,6.2-2.6
		c0.4-0.8,1.3-0.9,1.7-1.7c2.6-1.3,3.8-3.8,6.4-5.1c0.8-0.9,1.3-2.3,2.6-3c0.2,0,0,0.4,0.6,0.4c0.2-0.4,0.4-0.6,0.8-0.8
		c0.8,0.4,1.3,0,1.9,0c0.9-0.2,2.5,0,3.4-0.2c1.1-0.4,1.9-0.9,2.4-1.5c0.9-0.2,1.5-0.8,2.6-0.8c0.6-0.9,2.4-0.9,3.2-1.5
		c0.8-0.4,1.3-0.4,1.9-0.9c1.5-0.2,2.3-1.1,3.6-1.5c0-0.4,0.2-0.8,0.4-0.9c1.7-0.2,2.3-1.7,4-2.1c0.1-0.1,0.2-0.2,0.3-0.3
		c0,0.1,0,0.1,0,0.2c0.2,0.9,0,1.7,0.4,2.4c0,0.2,0.4,0.6,0.4,0.8c0.4,0.9,0.4,1.7,0.8,2.6l1.1,2.3c0,0.2-0.2,0.4-0.2,0.6
		c0.2,1.1,1.1,1.7,1.1,2.6c0.6,0.2,0.8,0.8,1.1,0.8v0.8c0.8,1.1,1.7,1.9,2.5,2.8c0.4,0.2,0.4,0.6,0.6,0.9c1.9,1.9,4.5,2.8,6.4,4.7
		c0.6,0,0.8,0.4,1.3,0.2c0.2,0.4,0.9,0.4,0.9,0.9c0.6,0,0.6-0.4,1.1-0.2c0.9,1.7,3.8,1.7,5.3,2.6c1.9-0.2,3,0.2,4.1,0.2
		c0.6,0,1.1,0,1.7-0.4c0.4,0.6,1.3,0.8,2.5,0.8c0.4-0.2,0.2-0.6,0.4-0.8c0.6,0.6,0.9,0.4,1.7,0.4l0.6,0.4h0.6c0.9,0,1.7-0.6,2.6-0.6
		h0.6c0.4-0.2,0.9-0.4,1.7-0.4h0.8c0.4-0.2,0.2-0.6,0.6-0.6c1.9-0.2,2.6-1.5,4.5-1.7c0.6-1.5,2.6-1.7,3.4-3c1.1-0.4,1.9-1.3,3.2-1.7
		c1.5-2.4,4.1-3.8,6.2-5.5v-0.8c1.2-0.5,2-1.2,2.7-2c0.2,0.4,0.4,0.7,0.7,0.9c0,0.4-0.2,0.6-0.2,0.8c0.8,0.9,0.9,2.4,1.7,3.2
		c0.2,1.1,0.8,1.9,1.3,2.3c0,0.4,0.2,0.6,0.2,0.9c1.1,0.9,1.7,2.3,2.8,3c0.8,0.6,1.7,0.8,2.5,1.1c0,0.4,0.2,0.6,0.4,0.8
		c1.5,0.8,2.8,1.9,4.9,1.9c0.2,0.4,0.6,0.6,0.9,0.8h0.6c1.3,0,2.3,0.4,3.2,0.9c1.3,0,3,0,4.1,0.6c3.2,0.2,6.8-0.4,9.6-0.4h2.3
		c1.5-0.2,3.6-1.1,4.3-1.9c1.1,0,1.5-0.6,2.3-1.1c2.6-0.4,4.3-4.1,7-4.1c0.6,0,1.1,0.2,1.7,0.6c1.3,0.8,2.1,1.3,3.2,2.3
		s2.1,1.9,3.4,1.9c0.8,0.8,2.1,0.6,3,0.9c1.7-0.4,3.6-0.2,5.6-0.9c0.4-0.6,0.9-1.3,0.9-2.1c0-0.9-0.6-1.1-0.8-1.5
		c0.2-0.4,0.4-0.4,0.4-0.9c-0.4-0.4-0.8-0.8-1.1-0.9V107c0-0.6-0.4-1.3-0.4-2.3v-0.4c-0.9-0.9-2.1-1.5-2.6-3c0-0.4,0.6-0.2,0.4-0.8
		c-1.1-0.8-1.3-2.3-2.5-2.8v-0.4c0-1.5-1.5-3-2.3-4.1v-0.4c0-0.8-0.6-1.1-0.8-1.7c0.2-1.9-0.6-3.6-0.6-5.4v-0.9
		c-0.2-0.4-0.4-0.8-0.4-1.1L535,82c0.2-0.2,0.8-0.4,0.8-0.8c0.4-0.8,0.2-1.1,0.6-1.5c0.6-0.8,1.1-1.9,1.7-2.4c0-1.3,0.8-2.8,2.1-3.4
		c0-1.3,1.1-1.7,1.1-2.6c0-0.2-0.2-0.4-0.4-0.8c0.4-0.4,0.8-0.6,1.3-0.6c0-0.6,0.4-0.8,0.8-0.9c0.8-2.1,2.1-3.4,2.3-5.8h1.5
		c0.2-1.1,0.8-1.7,1.3-2.3c-0.4-0.9,0-0.9,0.2-1.5c0.6-1.3,0.6-2.6,0.8-4.3c0.4-0.4,0.8-0.6,0.9-1.1c0-0.4-0.4-0.4-0.4-0.9
		c0.2-0.2,0.8-0.2,0.8-0.6c-0.2-0.4,0-1.3,0.8-1.5v-0.2c0-0.8,0.6-0.9,0.6-1.7c0.9-0.8,0.8-1.9,0.9-2.8c0.2-0.4,0.4-0.6,0.6-0.8
		c0.2-0.9,0-1.9,0.2-2.6l0.6-0.9v-2c0.2-0.9,0.6-1.7,0.6-2.6c-0.2-0.8-0.2-1.5-0.2-2.3C554.2,34.4,554.2,33.7,554.4,33.1z
		 M304.8,125.3c-0.4,0.6-0.6,1.3-0.6,2.3c-0.6,0.9-0.9,2.3-0.9,3.8c-0.6,0.8-1.1,1.5-1.1,2.6c0,0.9,0.2,1.3-0.2,1.9
		c-0.2,0.8-0.6,1.1-1.1,1.7c-0.6,2.8-3.4,3.6-5.3,5.1v0.8l-2.3,1.1h-3.6c-0.9,0-1.7-0.2-2.6-0.6c-0.2-0.8-0.8-1.3-1.1-1.7v-0.4
		c0-0.8,0.6-1.7,0.6-2.3c0-0.4-0.2-0.8-0.4-0.9c0.9-1.1,1.3-3.2,2.6-3.9c0.2-0.4-0.2-0.4,0-0.9c1.1-0.2,0.9-1.7,1.5-2.4
		c0.4-0.4,0.9-0.6,1.1-0.9c0.4-0.2,0.6-0.6,0.8-0.9c1.5-0.4,1.9-1.7,3.2-2.3l0.6-1.1c0.9,0,1.1-0.8,1.5-1.5c3.6-0.2,4.1-3.2,7.3-3.6
		c0.2,1.1-0.4,2.1-0.4,3C304.4,124.3,304.6,124.9,304.8,125.3z M306.3,83c0,1.5-0.8,3.2-0.8,4.7v0.9c0,0.8,0,1.5-0.6,2.1
		c0,1.3-0.4,2.3-0.9,3.4c-0.4,0.8-0.6,0.9-0.9,1.5c-0.2,0.4-0.2,0.8-0.4,0.8c-0.4,0.6-1.3,0.8-1.3,1.5c-1.3,0.4-2.1,1.1-3,1.1
		c-1.9,0-2.1-2.4-3.8-3v-0.4c0-0.8,0.6-1.7,0.6-2.6c0-0.4-0.2-0.6-0.2-0.8c0.9-1.1,1.1-2.4,1.7-3.9h0.8c1.1-1.1,3.2-1.3,4-2.8
		c0.6,0,0.4,0.4,0.8,0c0.4-0.6,1.3-0.6,1.3-1.3c1.7,0,1.7-1.3,2.8-1.5L306.3,83L306.3,83z M376.2,97.6c-1.5,1.1-4,1.3-4.9,2.6
		c-1.3-0.2-2.6,0-4,0c-0.4-0.4-0.6-0.9-1.5-1.1c0-0.9-0.6-1.3,0-1.9c-0.6-0.2-0.6-1.1-0.9-1.5c0.4-1.3,0.2-2.8,0.8-4.1h0.6
		c0.9,0,1.3,0.8,1.9,1.1c0.2,0,0.6,0,0.8,0.2l0.4,0.6c0.2,0.2,0.6,0.2,0.8,0.2c0.2,0.2,0.2,0.4,0.4,0.4h0.2c0.8,0,1.1,0.8,1.3,0.9
		c0.2,0,0.8,0,0.9,0.2c0.4,0,0.6,0.4,0.8,0.6c0.8,0.2,1.9,0.2,2.6,0.8C376.4,97.1,376.4,97.3,376.2,97.6z M386.2,79.6
		c0,0.6-0.2,1.3-0.2,1.7c0,0.8,0.2,1.5,0.2,2.1s-0.2,0.9-0.6,1.5v0.6c0,1.5-0.9,2.6-1.5,3.9c-0.4,0.2-0.8,0.4-1.3,0.4
		c-0.8,0-1.5-0.4-2.3-0.6c-0.6-0.2-0.8-0.6-1.5-0.6c-0.8-0.6-2.3-1.1-3.4-1.5c-0.6-0.6-1.5-0.9-2.3-1.1c-0.2-0.9-1.5-1.1-1.9-1.9
		l-0.6-0.9c-0.2-0.6-0.9-1.1-1.1-1.9c1.1-0.4,1.5-1.5,2.3-2.3v-0.6c0.8-0.9,1.5-2.1,2.5-2.1c0.4-0.2,0.8-0.8,1.3-0.9
		c0.6,0,1.3-0.6,2.3-0.8c1.9-0.4,5.8,0.6,6.6,1.5c0.2,0.2,0.4,0.6,0.6,1.3c0.2,0.6,0.8,0.9,0.9,1.7V79.6L386.2,79.6z M436.8,51.7
		c0,1.7,0.4,3.6-0.6,4.7c-0.8,0.2-0.9-0.2-1.5,0c0-0.9-0.6-2.1-0.6-3s0.4-1.7,1.3-2.3c-0.9-1.7-1.7-3.4-3-4.9
		c1.3-0.8,1.5-1.3,1.5-2.4v-0.9c0-0.8,0.8-1.9,0.8-2.3c0-1.5-1.3-3-1.3-4.3c0-0.6,0.8-0.9,0.9-1.5c0-0.4-0.6-0.8-0.6-1.1
		c0-0.6,0.6-1.1,0.6-1.7c0-0.4-0.2-0.6-0.6-0.9c1.7-0.9,2.6-2.1,5.3-2.6c0.9,1.9,2.3,4.7,2.3,7.3c0,0.9-0.2,1.9-0.6,2.8
		c-0.2,0.2-1.1,0.8-1.3,1.1c-0.9,2.1,0.6,5.8-1.9,7.9c0,0.6,0.2,0.8,0.6,1.1C437,49.5,436.8,50.6,436.8,51.7z M440.6,88.8
		c0,0-0.2,0-0.4-0.2C440.6,88.4,440.8,88.6,440.6,88.8z M512,97.5c-0.4,0.8-0.9,1.9-1.5,2.6c-0.9,1.5-2.1,2.1-3.8,2.1
		c-0.6,0-1.1-0.2-1.7-0.2c-2.6-0.6-5.1-1.3-6-3.2c-0.2-0.2-0.2-0.6-0.2-0.9c0-0.6,0-1.1,0.2-1.7c-0.4-0.4-0.4-0.9-0.4-1.3
		c0-0.9,0.4-1.9,0.4-3.2c0-0.4-0.4-0.4-0.8-0.4c1.1-1.3,2.1-2.6,2.5-4.5c0.9-0.6,1.7-1.3,2.3-2.1c1.3-0.2,1.9-0.9,2.6-1.9
		c0.8,0,1.3-0.8,2.1-0.8c0.2,0,0.4,0,0.8,0.4c0.6-0.2,1.1-0.4,2.1-0.4l0,0c0.6,0.6,0.2,1.3,0.2,1.9c0.2,0.9,0.8,1.9,1.1,3
		c0.2,0.6,0.4,0.8,0.6,1.1c0.2,0.8,0,1.3,0.6,1.7v0.4c0,1.5,1.5,2.6,1.5,3.8C514.5,95,513,96.3,512,97.5z M542.3,33.1
		c-1.1,1.3-1.9,2.8-2.3,4.7c-0.4,0.6-0.8,1.1-0.9,1.7c0,0.2,0.2,0.4,0.2,0.6c0,0.9-0.8,1.7-0.8,2.6c0,0.2,0,0.4,0.2,0.6
		c-1.5,0.9-2.1,3.8-2.1,5.8c-0.2,0.4-0.6,0.9-0.4,1.3c-0.8,1.9-1.9,3.4-2.6,5.1c-0.4-0.6-0.2-1.3-0.6-1.7c0.2-0.4,0.2-0.8,0.2-1.1
		c0-0.8-0.4-1.5-0.4-2.3c0-0.4,0.2-0.9,0.6-1.3c-0.4-0.4-0.6-0.9-0.6-1.3c0-0.8,0.4-1.3,0.8-1.7c-0.9-0.8-1.1-2.1-1.1-3.8
		c0-0.8-0.4-1.5-0.4-2.1c0-0.4,0.2-0.8,0.6-1.1c-0.2-0.4-0.2-0.9-0.2-1.3c0-0.8,0.2-1.5,0.4-2.3c0.2-0.4-0.4-0.2-0.4-0.8
		c0.6-0.9,0-3,0.8-3.8c-0.4-0.9-0.6-1.9-0.6-2.8c0-1.3,0.4-2.6,1.3-3.6c1.1-0.4,2.1-0.9,2.8-1.7c1.3,0.2,1.7,1.1,3.2,1.1
		c0.4,0.8,1.9,0.4,2.3,1.1c0,1.9,1.3,2.3,1.3,4C543.3,30.5,542.5,31.6,542.3,33.1z"/>
</g>
</svg>
